<svg xmlns="http://www.w3.org/2000/svg" width="828" height="253" viewBox="0 0 828 253" fill="none"><path opacity="0.04" d="M26.5208 225.584C27.3698 224.735 29.4923 225.584 31.1903 227.494C32.4637 228.98 33.1005 230.678 32.8882 231.739C54.5373 213.698 90.6191 178.041 127.974 140.049C73.6394 142.596 19.729 142.171 6.99424 130.922C1.68809 126.253 0.414618 120.947 2.74932 115.428C4.87178 109.91 10.6024 103.755 18.6678 97.175C26.9453 90.5954 37.5576 83.8036 49.6556 77.6484C96.562 53.2402 166.391 34.987 205.444 60.6688C238.342 26.7094 262.963 1.4522 265.722 1.23996C274.424 0.390971 277.82 6.12161 272.514 25.6482C268.481 39.8687 259.779 63.6402 243.861 102.269C240.889 109.698 237.705 116.914 234.522 123.706C243.648 122.857 248.954 122.22 248.954 122.22C250.44 122.008 252.563 123.494 253.836 125.616C255.322 127.526 255.11 129.436 253.836 129.649C253.624 129.649 245.771 130.498 232.824 131.771C231.126 142.383 227.942 152.996 223.909 163.183C215.42 185.045 203.322 204.996 193.771 218.367C186.766 228.131 181.036 234.286 178.913 234.71C175.517 235.559 173.183 233.649 171.909 229.192C171.06 225.796 176.791 215.396 185.917 199.053C195.256 182.498 207.991 159.788 220.726 133.045C199.713 134.955 171.06 137.502 141.558 139.2C86.7986 195.02 32.676 248.082 20.3657 251.265C16.3331 252.327 13.3616 250.416 12.0881 245.323C10.6024 239.592 26.3086 225.584 26.5208 225.584ZM135.403 132.408C155.354 112.244 175.305 91.6566 193.346 72.979L201.836 64.2769C164.905 43.4769 99.9579 61.5177 55.3863 84.6525C43.2883 90.8077 32.8882 97.5995 24.8229 103.967C16.9698 110.334 11.4514 116.277 9.32894 121.371C8.26771 124.13 8.05547 125.828 8.6922 126.465C20.578 136.865 79.1578 135.804 135.403 132.408ZM199.501 79.7709C183.795 95.9016 166.603 113.73 149.199 131.347C178.489 129.436 205.869 126.677 224.546 124.767L226.669 120.31C227.518 111.183 227.305 102.269 225.183 93.9913C222.636 84.4403 217.754 76.1627 209.477 69.3708L199.501 79.7709ZM270.391 8.66855C268.693 8.88081 244.922 33.0768 212.66 66.1872C222.848 74.8892 228.791 85.5015 231.763 96.9628C232.611 99.5097 233.036 102.269 233.46 105.028C234.734 102.269 236.007 99.2975 237.069 96.3261C252.987 57.9096 261.689 34.138 265.51 20.1298C268.057 11.64 271.665 8.45631 270.391 8.66855ZM211.387 170.824C206.081 181.012 200.987 190.139 196.53 198.204C201.624 190.139 206.718 180.8 211.387 170.824ZM321.597 51.33C322.234 50.481 324.356 50.9055 326.054 52.8157C327.752 54.5136 328.601 56.8483 327.965 57.6973C327.965 57.9096 312.471 79.3464 295.915 104.179H350.038C351.524 104.179 353.859 105.877 354.92 107.787C356.193 109.91 355.981 111.608 354.495 111.608H291.034C286.577 118.4 282.119 125.404 277.875 132.196V132.408C277.875 133.257 277.45 133.681 277.026 133.681C264.079 154.694 257.074 166.792 259.409 171.037C263.23 178.253 306.315 143.869 306.315 143.657C307.164 143.02 308.438 142.596 310.136 144.506C311.834 146.416 310.56 147.477 309.711 148.114C309.499 148.326 261.319 195.869 250.919 176.767C247.736 170.824 257.499 150.449 271.083 127.951C270.87 127.951 272.356 125.616 272.356 125.616C272.781 109.485 218.446 111.608 218.446 111.608C216.96 111.608 214.625 109.91 213.564 107.787C212.291 105.877 212.503 104.179 213.989 104.179H285.728C303.556 76.3749 321.385 51.5422 321.597 51.33ZM274.691 121.796C276.813 118.4 278.936 115.004 281.058 111.608L254.528 110.547C260.895 113.093 271.295 117.338 274.691 121.796ZM313.756 145.143C316.727 144.294 319.911 143.02 323.307 141.534C327.764 139.2 331.584 134.743 333.919 130.71C334.344 129.861 334.556 129.224 334.98 128.375C332.646 129.436 329.886 131.134 326.703 133.469C322.458 136.653 317.576 140.685 313.756 145.143ZM328.825 148.539C318.85 153.632 307.601 154.906 306.964 154.906C292.531 185.894 349.837 159.575 356.417 147.69C357.054 146.416 359.176 144.93 361.086 146.628C362.784 148.326 362.784 149.175 362.148 150.449C356.205 160.849 323.094 183.771 308.45 175.494C301.233 171.461 296.776 162.971 298.474 154.694C299.535 149.387 302.719 143.869 306.964 138.987C311.209 134.318 316.09 129.861 320.76 126.465C326.915 122.22 332.646 119.673 334.98 120.098C336.89 120.522 338.588 121.583 340.074 123.281C342.197 125.616 343.046 128.375 342.621 130.922C342.409 132.832 341.56 134.743 340.499 136.865C338.164 141.322 333.919 145.992 328.825 148.539ZM363.254 134.53C363.89 133.469 366.013 133.894 367.711 135.592C369.621 137.289 370.47 139.624 369.833 140.685L364.527 150.236C375.988 140.685 388.511 131.347 393.18 132.62H393.605C399.972 134.53 401.033 138.563 399.548 143.869C398.911 146.204 397.425 148.963 395.94 152.147C393.18 157.665 389.997 163.82 389.997 163.82C396.789 168.277 419.711 148.114 419.923 148.114C420.56 147.265 422.895 144.506 424.593 146.416C426.503 148.114 425.229 148.539 424.381 149.6C424.381 149.6 401.246 176.979 390.209 169.763C380.658 163.608 385.327 154.269 389.36 145.992C390.209 144.294 391.058 142.596 391.695 140.898C379.597 147.265 351.368 174.22 350.519 175.069C349.882 175.918 347.972 175.281 346.274 173.796C344.576 171.886 343.515 169.763 344.152 168.702L363.254 134.53ZM451.724 155.33C451.511 156.392 450.238 156.604 448.752 155.755L448.54 156.179C440.899 162.759 434.107 168.065 428.801 171.461C421.585 175.918 409.487 176.979 410.124 164.881C410.336 161.698 411.822 157.665 414.156 153.632C418.401 146.628 427.528 134.955 436.442 135.379C444.72 135.167 447.267 139.412 449.389 142.596C457.242 135.167 465.307 126.465 472.948 117.338C490.352 96.5383 502.238 79.3464 507.969 70.4321L512.426 63.6402C513.063 62.579 514.973 63.0035 516.883 64.9137C518.581 66.6116 519.642 68.7341 519.006 70.0076C519.006 70.0076 517.308 72.7668 513.912 77.8607C493.112 110.547 414.368 234.71 417.34 241.714C418.189 243.837 417.34 244.898 415.642 244.474C413.944 244.049 411.822 242.139 411.185 240.016C408.638 234.074 436.867 185.682 464.034 140.898C460.001 145.143 455.969 149.175 451.936 152.783C451.936 154.269 451.724 155.118 451.724 155.33ZM444.72 147.053C444.295 145.567 443.234 143.869 440.475 143.869C432.834 143.445 424.344 153.845 420.736 159.788C419.038 162.759 417.764 165.518 417.34 167.641C418.613 167.004 420.524 165.943 422.858 164.457C428.164 161.273 434.956 155.967 442.385 149.387L444.72 147.053ZM500.02 129.861C501.081 129.012 503.203 129.861 504.901 131.771C506.599 133.681 507.236 135.804 506.175 136.653C501.505 140.685 493.864 149.812 489.195 158.726C486.224 164.669 486.436 168.065 488.558 169.126C497.26 170.4 520.82 147.477 520.82 147.265C521.669 146.416 523.154 144.718 524.852 146.628C526.763 148.539 525.914 149.175 525.065 150.024C524.852 150.024 489.62 188.228 480.493 172.31C477.522 167.004 479.007 159.788 482.615 152.571C487.285 143.445 495.138 133.894 500.02 129.861ZM513.179 123.706C512.33 124.767 510.207 123.918 508.509 122.22C506.811 120.31 505.962 118.187 506.811 117.126L518.697 103.542C519.546 102.481 521.456 103.33 523.367 105.028C525.065 106.938 525.701 109.061 525.065 110.122L513.179 123.706ZM528.257 129.012C528.681 127.951 530.804 128.587 532.502 130.285C534.412 131.983 535.473 134.106 534.836 135.379L531.016 141.959C537.595 135.592 543.963 130.285 547.995 128.8C561.155 124.342 559.032 138.775 554.787 151.722C555.424 151.298 556.273 150.873 556.91 150.661C558.82 149.812 560.518 149.175 562.004 149.175C565.4 148.963 568.159 150.661 570.069 154.694C571.13 157.028 571.13 160.637 569.432 165.518C569.22 165.943 592.143 147.053 592.355 147.053C593.204 146.204 595.114 143.869 596.812 145.779C598.722 147.477 598.51 148.751 597.661 149.6C597.449 149.812 546.722 203.298 562.64 159.575C562.853 158.726 563.065 158.09 563.277 157.241L562.428 157.665C556.698 160.637 549.269 166.792 547.783 169.339V169.551C547.146 170.824 545.236 170.4 543.326 168.702C541.416 167.004 540.567 164.669 540.991 163.608C540.991 163.396 553.938 135.804 553.302 136.016C541.84 140.049 511.277 177.404 511.065 177.616C510.428 178.465 508.518 177.828 506.82 176.343C505.122 174.645 504.061 172.31 504.697 171.249L528.257 129.012ZM601.241 145.143C604.212 144.294 607.396 143.02 610.792 141.534C615.249 139.2 619.07 134.743 621.404 130.71C621.829 129.861 622.041 129.224 622.465 128.375C620.131 129.436 617.372 131.134 614.188 133.469C609.943 136.653 605.061 140.685 601.241 145.143ZM616.31 148.539C606.335 153.632 595.086 154.906 594.449 154.906C580.016 185.894 637.323 159.575 643.902 147.69C644.539 146.416 646.662 144.93 648.572 146.628C650.27 148.326 650.27 149.175 649.633 150.449C643.69 160.849 610.58 183.771 595.935 175.494C588.718 171.461 584.261 162.971 585.959 154.694C587.02 149.387 590.204 143.869 594.449 138.987C598.694 134.318 603.576 129.861 608.245 126.465C614.4 122.22 620.131 119.673 622.465 120.098C624.376 120.522 626.074 121.583 627.559 123.281C629.682 125.616 630.531 128.375 630.106 130.922C629.894 132.832 629.045 134.743 627.984 136.865C625.649 141.322 621.404 145.992 616.31 148.539ZM650.739 134.53C651.376 133.469 653.498 133.894 655.196 135.592C657.106 137.289 657.955 139.624 657.319 140.685L652.012 150.236C663.474 140.685 675.996 131.347 680.666 132.62H681.09C687.458 134.53 688.519 138.563 687.033 143.869C686.396 146.204 684.911 148.963 683.425 152.147C680.666 157.665 677.482 163.82 677.482 163.82C684.274 168.277 707.196 148.114 707.409 148.114C708.045 147.265 710.38 144.506 712.078 146.416C713.988 148.114 712.715 148.539 711.866 149.6C711.866 149.6 688.731 176.979 677.694 169.763C668.143 163.608 672.813 154.269 676.845 145.992C677.694 144.294 678.543 142.596 679.18 140.898C667.082 147.265 638.853 174.22 638.004 175.069C637.368 175.918 635.457 175.281 633.759 173.796C632.061 171.886 631 169.763 631.637 168.702L650.739 134.53ZM767.438 51.33C768.074 50.481 770.197 50.9055 771.895 52.8157C773.593 54.5136 774.442 56.8483 773.805 57.6973C773.805 57.9096 758.311 79.3464 741.756 104.179H795.879C797.364 104.179 799.699 105.877 800.76 107.787C802.034 109.91 801.821 111.608 800.336 111.608H736.874C732.417 118.4 727.96 125.404 723.715 132.196V132.408C723.715 133.257 723.29 133.681 722.866 133.681C709.919 154.694 702.915 166.792 705.25 171.037C709.07 178.253 752.156 143.869 752.156 143.657C753.005 143.02 754.278 142.596 755.976 144.506C757.674 146.416 756.401 147.477 755.552 148.114C755.34 148.326 707.16 195.869 696.76 176.767C693.576 170.824 703.339 150.449 716.923 127.951C716.711 127.951 718.197 125.616 718.197 125.616C718.621 109.485 664.286 111.608 664.286 111.608C662.8 111.608 660.466 109.91 659.405 107.787C658.131 105.877 658.343 104.179 659.829 104.179H731.568C749.397 76.3749 767.225 51.5422 767.438 51.33ZM720.531 121.796C722.654 118.4 724.776 115.004 726.899 111.608L700.368 110.547C706.735 113.093 717.135 117.338 720.531 121.796ZM758.959 136.016C759.808 135.379 761.931 136.228 763.629 138.138C765.327 140.049 765.751 142.171 764.902 143.02C764.266 143.445 763.629 143.869 763.204 144.294C758.747 148.326 755.139 154.906 752.804 161.486C751.106 167.004 750.257 172.098 751.319 174.22C752.38 174.645 753.653 174.645 755.351 174.22C757.261 173.584 759.596 172.31 761.719 170.188C764.69 167.641 767.449 163.82 769.996 158.939C771.482 156.179 772.543 153.208 773.392 150.236C769.572 147.053 766.812 143.232 765.115 139.412C763.417 135.592 762.78 131.771 762.992 129.012C763.417 126.04 764.69 123.918 767.237 123.494C769.147 123.281 770.845 123.706 772.543 124.555C775.302 126.04 777.637 128.587 779.123 131.771C780.396 134.106 781.033 136.653 781.457 139.412C781.882 142.171 781.882 145.355 781.457 148.539C786.127 149.387 793.131 150.236 800.56 145.992C801.621 145.355 802.682 144.506 804.38 146.416C805.866 148.326 805.653 149.812 804.592 150.449C794.617 155.967 787.188 156.816 780.608 154.481C779.759 158.09 778.486 161.91 776.576 165.094C774.029 169.975 771.057 174.22 767.874 176.979C765.327 179.102 762.992 180.8 760.657 181.437C757.898 182.286 755.139 182.073 752.38 180.588C750.894 179.739 749.408 178.677 748.135 177.192C747.71 176.767 747.286 176.343 746.861 175.918C743.465 171.037 743.678 163.183 746.012 155.755C748.347 148.751 752.38 141.747 757.049 137.502C757.686 137.077 758.323 136.441 758.959 136.016ZM774.453 145.143C774.878 141.747 774.878 138.351 774.453 135.592C774.241 133.681 773.817 131.983 773.392 130.922C773.18 130.922 773.604 130.922 773.604 130.922C773.392 130.71 772.755 130.71 772.119 130.922C770.845 130.922 770.208 132.196 769.996 134.106C769.784 136.016 770.208 138.351 771.27 140.685C771.906 142.383 772.968 143.869 774.453 145.143ZM801.291 153.632C800.442 154.481 797.895 155.755 796.197 154.057C794.499 152.147 798.956 148.326 799.805 147.477L815.724 128.163C818.483 125.191 820.605 123.494 820.605 123.494C821.454 122.645 823.577 123.494 825.062 125.404C826.76 127.102 827.609 129.436 826.76 130.285L821.666 135.167C817.209 140.261 811.266 149.387 813.601 159.151C814.875 165.306 814.238 170.188 812.54 173.796C811.479 175.706 809.993 177.192 808.507 178.465C807.021 179.526 805.323 180.375 803.626 180.8C800.654 181.437 797.683 181.012 795.348 179.739C783.25 173.584 789.83 161.698 789.83 161.486C790.466 160.424 792.377 160.849 794.287 162.547C796.197 164.245 797.046 166.579 796.621 167.641C796.621 167.853 793.65 173.159 794.074 173.371C794.923 173.796 796.621 173.796 798.319 173.371C799.805 173.159 801.291 172.522 802.564 171.461C803.838 170.612 805.111 169.126 805.748 167.641C807.234 164.669 807.87 160.849 806.809 155.967C806.809 153.208 804.899 152.996 809.993 143.657L801.291 153.632Z" fill="#444F5A"></path></svg>