<svg xmlns="http://www.w3.org/2000/svg" width="805" height="219" viewBox="0 0 805 219" fill="none"><path opacity="0.05" d="M8.1915 108.702C7.767 109.763 5.85679 109.551 3.94658 107.853C2.03637 106.367 0.975144 104.032 1.39963 102.759C1.61188 102.547 35.359 11.7053 154.641 3.42775C196.029 0.66855 228.503 7.88491 252.062 21.4686C270.527 32.2932 283.687 46.9381 291.115 63.4933C298.119 79.1995 299.817 96.8159 295.997 114.22C291.54 134.383 279.654 154.971 259.915 172.588C228.503 201.029 188.813 211.853 153.58 211.216C134.053 210.792 115.8 206.971 100.943 200.816C85.0245 194.024 72.7142 184.473 66.5591 173.012C62.3142 165.584 61.0407 157.73 63.3754 149.665C67.1958 136.294 76.5346 126.955 88.4204 121.436C96.0612 117.828 104.976 115.918 114.314 115.494C123.441 115.069 133.204 116.342 142.543 118.889C147.637 120.375 152.731 122.285 157.825 124.832C161.857 119.102 165.89 114.008 169.498 109.338C169.286 109.126 169.074 108.702 168.649 108.489C167.164 106.579 166.527 104.457 167.588 103.82L183.082 92.1465C184.143 91.5097 186.266 92.3587 187.964 94.2689C189.449 95.9669 190.086 98.0894 189.449 98.9383L165.041 128.653C177.776 136.506 188.6 147.543 194.968 161.763C196.029 163.673 195.392 165.159 193.694 164.735C191.996 164.31 189.874 162.4 189.025 160.49C183.294 148.392 173.531 139.053 161.645 132.685C146.788 150.939 131.294 169.828 131.294 169.828C132.568 169.192 134.69 170.465 136.176 172.588C137.874 174.498 138.086 176.408 136.812 176.833C116.649 185.11 135.114 155.608 154.429 129.289C151.457 128.016 148.486 126.955 145.515 126.106C136.6 123.559 127.474 122.498 118.772 122.922C109.857 123.347 101.367 125.045 94.151 128.441C82.6898 133.747 73.7754 142.661 70.1673 155.396C68.257 161.763 69.106 167.918 72.2897 173.437C76.5346 181.29 86.0857 188.506 99.0327 194.024C113.041 199.755 130.445 203.576 149.335 203.788C183.931 204.424 222.772 193.812 253.76 165.796C273.074 148.392 284.748 128.441 289.205 108.702C292.813 92.3587 291.327 76.228 284.96 62.0076C279.017 48.6361 268.193 36.7503 252.699 27.6238C230.625 14.889 199.425 8.09716 159.098 10.8564C41.7263 18.9217 8.40374 108.277 8.1915 108.702ZM317.394 121.861C318.455 121.012 320.577 121.861 322.275 123.771C323.973 125.681 324.61 127.804 323.549 128.653C318.879 132.685 311.239 141.812 306.569 150.726C303.598 156.669 303.81 160.065 305.933 161.126C314.635 162.4 338.194 139.477 338.194 139.265C339.043 138.416 340.529 136.718 342.227 138.628C344.137 140.539 343.288 141.175 342.439 142.024C342.227 142.024 306.994 180.228 297.867 164.31C294.896 159.004 296.381 151.788 299.99 144.571C304.659 135.445 312.512 125.894 317.394 121.861ZM330.553 115.706C329.704 116.767 327.582 115.918 325.884 114.22C324.186 112.31 323.337 110.187 324.186 109.126L336.071 95.5424C336.92 94.4812 338.831 95.3302 340.741 97.0281C342.439 98.9383 343.076 101.061 342.439 102.122L330.553 115.706ZM361.125 104.244C360.488 103.82 359.851 102.971 359.427 102.334C358.153 100.424 358.366 98.7261 359.851 98.5139C361.974 98.5139 367.704 92.7832 373.435 85.5669L375.133 83.8689C378.741 78.1383 381.925 73.2566 384.259 69.4362C386.806 65.1913 388.717 62.2198 390.202 60.7341C390.415 59.8851 391.051 59.6729 392.113 59.8851H392.325C396.57 61.1586 398.055 63.4933 396.994 67.3137C396.145 70.4974 388.929 81.1097 381.5 90.2363C377.468 96.3914 372.586 103.396 367.28 110.824C360.912 119.738 351.149 133.959 340.749 149.028C349.663 149.241 364.521 149.877 379.59 138.628C380.439 137.992 381.5 136.294 382.986 138.204C384.684 140.114 385.321 142.236 384.259 142.873C363.459 158.367 344.782 157.094 336.504 155.396L335.018 157.306C335.443 162.4 335.231 171.102 332.259 184.261C330.137 194.237 325.467 201.665 320.161 207.184C312.945 214.612 304.455 218.22 299.786 217.796L299.573 217.584C299.149 217.584 298.937 217.584 298.512 217.371L298.088 217.159C293.206 214.825 292.782 210.155 295.541 204.212C297.451 200.392 300.422 195.086 304.031 188.931C310.398 178.318 319.1 164.947 328.014 151.788C327.802 150.302 327.59 149.665 327.59 149.665C326.953 147.755 327.802 146.481 329.5 147.118H329.712C329.712 147.118 330.137 147.33 330.986 147.543C342.447 130.563 353.908 114.432 360.912 104.457L361.125 104.244ZM327.378 168.979C321.01 178.531 315.28 187.657 310.61 195.298C307.427 200.392 304.88 205.061 303.182 208.457C306.578 206.971 310.398 204.212 314.006 200.604C318.888 195.298 323.345 188.294 325.467 178.955C326.316 175.135 326.953 171.951 327.378 168.979ZM387.732 137.143C390.703 136.294 393.887 135.02 397.283 133.534C401.74 131.2 405.56 126.743 407.895 122.71C408.32 121.861 408.532 121.224 408.956 120.375C406.622 121.436 403.862 123.134 400.679 125.469C396.434 128.653 391.552 132.685 387.732 137.143ZM402.801 140.539C392.826 145.632 381.577 146.906 380.94 146.906C366.507 177.894 423.813 151.575 430.393 139.69C431.03 138.416 433.152 136.93 435.063 138.628C436.76 140.326 436.76 141.175 436.124 142.449C430.181 152.849 397.071 175.771 382.426 167.494C375.209 163.461 370.752 154.971 372.45 146.694C373.511 141.387 376.695 135.869 380.94 130.987C385.185 126.318 390.066 121.861 394.736 118.465C400.891 114.22 406.622 111.673 408.956 112.098C410.866 112.522 412.564 113.583 414.05 115.281C416.173 117.616 417.022 120.375 416.597 122.922C416.385 124.832 415.536 126.743 414.475 128.865C412.14 133.322 407.895 137.992 402.801 140.539ZM443.809 115.918C444.446 114.857 446.569 115.494 448.266 117.191C450.177 118.889 451.026 121.224 450.389 122.285L442.536 134.808C449.964 131.2 460.152 127.804 464.397 133.11C466.307 135.232 465.671 140.114 468.43 140.326C472.463 140.539 478.405 139.69 484.136 137.992C485.41 137.567 486.683 136.506 487.956 138.416C489.442 140.539 488.593 141.175 487.32 141.387C481.165 143.298 470.977 145.42 466.52 144.996C461.001 144.571 459.303 143.085 454.634 137.567C451.45 133.747 432.56 150.514 432.56 150.514C432.136 150.726 421.099 169.404 420.038 171.314C419.401 172.375 417.279 171.739 415.581 170.041C413.67 168.343 412.821 166.008 413.458 164.947L443.809 115.918ZM492.611 137.143C495.582 136.294 498.766 135.02 502.162 133.534C506.619 131.2 510.44 126.743 512.774 122.71C513.199 121.861 513.411 121.224 513.836 120.375C511.501 121.436 508.742 123.134 505.558 125.469C501.313 128.653 496.431 132.685 492.611 137.143ZM507.68 140.539C497.705 145.632 486.456 146.906 485.819 146.906C471.386 177.894 528.693 151.575 535.272 139.69C535.909 138.416 538.032 136.93 539.942 138.628C541.64 140.326 541.64 141.175 541.003 142.449C535.06 152.849 501.95 175.771 487.305 167.494C480.088 163.461 475.631 154.971 477.329 146.694C478.39 141.387 481.574 135.869 485.819 130.987C490.064 126.318 494.946 121.861 499.615 118.465C505.77 114.22 511.501 111.673 513.836 112.098C515.746 112.522 517.444 113.583 518.929 115.281C521.052 117.616 521.901 120.375 521.476 122.922C521.264 124.832 520.415 126.743 519.354 128.865C517.019 133.322 512.774 137.992 507.68 140.539ZM542.109 126.53C542.746 125.469 544.868 125.894 546.566 127.592C548.476 129.289 549.325 131.624 548.689 132.685L543.382 142.236C554.844 132.685 567.366 123.347 572.036 124.62H572.46C578.827 126.53 579.889 130.563 578.403 135.869C577.766 138.204 576.281 140.963 574.795 144.147C572.036 149.665 568.852 155.82 568.852 155.82C575.644 160.277 598.566 140.114 598.779 140.114C599.415 139.265 601.75 136.506 603.448 138.416C605.358 140.114 604.085 140.539 603.236 141.6C603.236 141.6 580.101 168.979 569.064 161.763C559.513 155.608 564.183 146.269 568.215 137.992C569.064 136.294 569.913 134.596 570.55 132.898C558.452 139.265 530.223 166.22 529.374 167.069C528.737 167.918 526.827 167.281 525.129 165.796C523.431 163.886 522.37 161.763 523.007 160.702L542.109 126.53ZM628.244 143.51C627.607 144.783 625.697 144.359 623.999 142.661C622.089 140.963 621.028 138.628 621.452 137.567C621.665 137.567 625.061 130.138 624.212 130.138C620.179 129.926 611.477 135.657 604.897 143.085C602.35 145.845 600.228 148.816 598.53 151.788C597.044 154.547 596.195 157.518 595.983 160.065C595.983 161.975 596.407 163.673 597.469 164.735C606.383 172.588 649.893 139.902 650.106 139.902C650.955 139.69 652.865 137.143 654.35 137.567C656.048 139.477 656.685 141.6 655.836 142.449C655.624 142.449 609.779 181.714 595.558 168.979C590.889 164.735 588.979 160.065 589.191 155.396C589.191 152 590.252 148.816 591.95 145.632C593.648 142.449 595.983 139.477 598.53 136.506C605.534 128.653 615.085 122.498 619.967 122.71C638.008 123.347 628.244 143.51 628.244 143.51ZM665.817 121.861C666.878 121.012 669 121.861 670.698 123.771C672.396 125.681 673.033 127.804 671.972 128.653C667.302 132.685 659.662 141.812 654.992 150.726C652.021 156.669 652.233 160.065 654.355 161.126C663.058 162.4 686.617 139.477 686.617 139.265C687.466 138.416 688.952 136.718 690.65 138.628C692.56 140.539 691.711 141.175 690.862 142.024C690.65 142.024 655.417 180.228 646.29 164.31C643.319 159.004 644.804 151.788 648.413 144.571C653.082 135.445 660.935 125.894 665.817 121.861ZM678.976 115.706C678.127 116.767 676.005 115.918 674.307 114.22C672.609 112.31 671.76 110.187 672.609 109.126L684.494 95.5424C685.343 94.4812 687.254 95.3302 689.164 97.0281C690.862 98.9383 691.498 101.061 690.862 102.122L678.976 115.706ZM722.282 134.808C723.131 136.93 722.495 138.204 720.797 137.779C719.099 137.355 716.976 135.445 716.127 133.534C711.882 129.502 701.482 134.383 697.662 137.567C689.809 143.934 685.352 151.575 683.017 161.339C690.446 159.216 709.76 136.718 709.76 136.718C710.609 135.869 712.519 136.506 714.429 138.416C715.915 140.114 716.764 142.024 716.127 143.085C715.703 144.147 713.156 149.665 714.429 155.608C715.278 160.702 742.87 137.567 743.295 137.355C744.144 136.506 745.842 135.445 747.54 137.143C749.238 139.053 749.025 140.751 748.176 141.6C734.168 154.122 725.891 161.551 720.16 164.522C710.397 169.616 702.968 166.645 703.18 156.245C695.539 163.461 687.686 170.041 683.017 167.918C681.319 167.281 680.045 166.008 678.772 164.735C676.65 161.975 675.801 159.004 676.225 155.82C676.437 153.273 677.286 150.514 678.56 147.755C681.319 141.812 686.201 135.232 691.719 130.775C701.27 122.922 718.674 122.498 722.282 134.808ZM756.187 121.861C757.248 121.012 759.371 121.861 761.069 123.771C762.767 125.681 763.403 127.804 762.342 128.653C757.673 132.685 750.032 141.812 745.362 150.726C742.391 156.669 742.603 160.065 744.726 161.126C753.428 162.4 776.987 139.477 776.987 139.265C777.836 138.416 779.322 136.718 781.02 138.628C782.93 140.539 782.081 141.175 781.232 142.024C781.02 142.024 745.787 180.228 736.66 164.31C733.689 159.004 735.175 151.788 738.783 144.571C743.452 135.445 751.305 125.894 756.187 121.861ZM769.346 115.706C768.497 116.767 766.375 115.918 764.677 114.22C762.979 112.31 762.13 110.187 762.979 109.126L774.865 95.5424C775.714 94.4812 777.624 95.3302 779.534 97.0281C781.232 98.9383 781.869 101.061 781.232 102.122L769.346 115.706ZM778.057 145.632C777.208 146.481 774.661 147.755 772.963 146.057C771.265 144.147 775.722 140.326 776.571 139.477L792.489 120.163C795.248 117.191 797.371 115.494 797.371 115.494C798.22 114.645 800.342 115.494 801.828 117.404C803.526 119.102 804.375 121.436 803.526 122.285L798.432 127.167C793.975 132.261 788.032 141.387 790.367 151.151C791.64 157.306 791.004 162.188 789.306 165.796C788.244 167.706 786.759 169.192 785.273 170.465C783.787 171.526 782.089 172.375 780.391 172.8C777.42 173.437 774.448 173.012 772.114 171.739C760.016 165.584 766.595 153.698 766.595 153.486C767.232 152.424 769.142 152.849 771.052 154.547C772.963 156.245 773.812 158.579 773.387 159.641C773.387 159.853 770.416 165.159 770.84 165.371C771.689 165.796 773.387 165.796 775.085 165.371C776.571 165.159 778.057 164.522 779.33 163.461C780.604 162.612 781.877 161.126 782.514 159.641C783.999 156.669 784.636 152.849 783.575 147.967C783.575 145.208 781.665 144.996 786.759 135.657L778.057 145.632Z" fill="#F6F6F6"></path></svg>